<svg xmlns="http://www.w3.org/2000/svg" xmlns:xlink="http://www.w3.org/1999/xlink" width="277" height="150" viewBox="0 0 277 150">
    <defs>
        <path id="a" d="M5.707 13.293l-1.414 1.414 5 5a1 1 0 0 0 1.414 0l11-11-1.414-1.414L10 17.586l-4.293-4.293z"/>
    </defs>
    <g fill="none" fill-rule="evenodd">
        <path fill="#34A9FF" d="M14 93h84v48H14z" opacity=".15"/>
        <path fill="#34A9FF" d="M43 6h192v121H43z" opacity=".15"/>
        <path fill="#34A9FF" d="M167 109h32v31h-32z" opacity=".15"/>
        <g fill="#0B0817" fill-rule="nonzero">
            <path d="M49 28v22h5V28h-5zm6-1v24h-7V27h7zM106 70v-8h8.332c1.686-10.05 9.618-17.982 19.668-19.668V34h8v8.332c10.05 1.686 17.982 9.618 19.668 19.668H170v8h-8.332C159.982 80.05 152.05 87.982 142 89.668V98h-8v-8.332C123.95 87.982 116.018 80.05 114.332 70H106zm9.19-1l.063.426c1.488 9.96 9.362 17.833 19.32 19.32l.427.064V97h6v-8.19l.426-.063c9.96-1.488 17.833-9.362 19.32-19.32l.064-.427H169v-6h-8.19l-.063-.426c-1.488-9.96-9.362-17.833-19.32-19.32L141 43.19V35h-6v8.19l-.426.063c-9.96 1.488-17.833 9.362-19.32 19.32l-.064.427H107v6h8.19zM240.86 145.846l-.36.374-.36-.374c-17.624-18.294-27.336-30.479-29.17-36.622-3.956-9.432-3.956-22.181-.025-38.25l.093-.38h.392c2.391 0 11.688-2.354 17.52-4.943 1.737-.837 5.501-3.362 11.256-7.555l.294-.215.294.215c5.755 4.193 9.52 6.718 11.241 7.549 5.847 2.595 15.144 4.948 17.535 4.948h.392l.093.381c3.927 16.055 3.93 28.796-.014 38.226-1.871 6.2-11.582 18.377-29.18 36.646zm28.23-36.959c3.848-9.183 3.878-21.603.083-37.309-3.015-.206-11.855-2.494-17.558-5.026-1.78-.859-5.474-3.33-11.115-7.434-5.641 4.104-9.335 6.575-11.13 7.44-5.689 2.526-14.528 4.814-17.543 5.02-3.795 15.706-3.765 28.126.082 37.31 1.775 5.933 11.322 17.935 28.591 35.89 17.27-17.955 26.816-29.957 28.59-35.89z"/>
            <path d="M257.103 103.787c.59-1.941.897-3.902.897-5.787a16.982 16.982 0 0 0-7.667-14.211l-.55.835A15.983 15.983 0 0 1 257 98c0 1.784-.292 3.647-.854 5.496l.957.29zm-8.573-21.032A16.93 16.93 0 0 0 241.043 81a16.987 16.987 0 0 0-13.233 6.274l.775.632A15.986 15.986 0 0 1 241.042 82c2.477.006 4.872.576 7.045 1.651l.443-.896zm-21.88 6.126a16.919 16.919 0 0 0-2.65 9.024c0 4.223 1.48 8.683 4.053 12.383l.821-.571c-2.46-3.537-3.874-7.799-3.874-11.81.017-3.049.89-5.97 2.494-8.49l-.843-.536zm2.664 23.051c.48.568.983 1.104 1.507 1.605C233.824 116.397 237.35 118 241 118v-1c-3.375 0-6.662-1.494-9.489-4.186a19.673 19.673 0 0 1-1.433-1.527l-.764.645z"/>
            <path d="M241 114c4.14 0 8.078-2.95 10.617-7.481l-.872-.49C248.367 110.276 244.727 113 241 113v1zm11.537-9.347c.949-2.21 1.463-4.522 1.463-6.653 0-2.283-.59-4.48-1.694-6.422l-.87.495A11.942 11.942 0 0 1 253 98c0 1.99-.485 4.168-1.382 6.258l.92.395zm-1.38-14.767A12.974 12.974 0 0 0 241 85a13.1 13.1 0 0 0-1.943.144l.148.99A12.1 12.1 0 0 1 241 86c3.695 0 7.113 1.68 9.377 4.51l.78-.624zm-14.139-4.265a13.021 13.021 0 0 0-8.741 9.7l.978.204a12.021 12.021 0 0 1 8.07-8.952l-.307-.952zm-9 11.705c-.012.22-.018.44-.018.661 0 3.969 1.772 8.458 4.592 11.677l.752-.66c-2.663-3.04-4.344-7.297-4.344-11.016 0-.204.006-.408.016-.611l-.999-.051zm6.063 13.828c2.101 1.832 4.477 2.846 6.919 2.846v-1c-2.183 0-4.332-.918-6.262-2.6l-.657.754zM241 110c3.089 0 6.013-2.708 7.74-6.598l-.915-.406C246.242 106.564 243.612 109 241 109v1zm8.438-8.48c.367-1.223.562-2.427.562-3.518a8.973 8.973 0 0 0-2.597-6.327l-.712.703A7.973 7.973 0 0 1 249 98.002c0 .988-.18 2.096-.52 3.23l.958.288zm-3.731-11.193A8.96 8.96 0 0 0 241 89a8.96 8.96 0 0 0-5.346 1.76l.594.803A7.96 7.96 0 0 1 241 90a7.96 7.96 0 0 1 4.183 1.18l.524-.853zm-11.57 1.85A8.965 8.965 0 0 0 232 98c0 1.278.267 2.71.764 4.143l.945-.328C233.247 100.484 233 99.16 233 98c0-1.923.68-3.74 1.9-5.175l-.763-.647zm-.559 11.898c1.776 3.553 4.524 5.925 7.422 5.925v-1c-2.445 0-4.903-2.122-6.527-5.372l-.895.447zM241 106v-1c1.823 0 4-4.182 4-7 0-.53-.103-1.044-.3-1.522l.925-.381c.247.599.375 1.242.375 1.903 0 3.297-2.448 8-5 8zm3.268-11.784l-.654.756A4 4 0 0 0 237 98c0 .262.025.563.075.89l-.989.15A7.018 7.018 0 0 1 236 98a5 5 0 0 1 8.268-3.784zm-7.674 6.859c.964 2.838 2.597 4.925 4.406 4.925v-1c-1.229 0-2.621-1.78-3.459-4.246l-.947.321zM10 145h92V89H10v56zM9 88h94v58H9V88z"/>
            <path d="M22 86v2h10v-2H22zm-1-1h12v4H21v-4zM39.809 88h33.382l-3.5-7H43.309l-3.5 7zm30.5-8l4.5 9H38.191l4.5-9h27.618z"/>
            <path d="M45.809 88h21.382l-1.5-3H47.309l-1.5 3zm20.5-4l2.5 5H44.191l2.5-5h19.618zM80 88h9v-2h-9v2zm-1-3h11v4H79v-4zM108 146h49v-1h-49zM209 146h23v-1h-23zM0 150h276.5v-1H0zM162 104v41h42v-41h-42zm43-1v43h-44v-43h44z"/>
            <path d="M172 114v8h8v-8h-8zm9-1v10h-10v-10h10z"/>
            <path d="M175 117v2h2v-2h-2zm3-1v4h-4v-4h4zM172 135h8v-8h-8v8zm9-9v10h-10v-10h10z"/>
            <path d="M175 132h2v-2h-2v2zm3-3v4h-4v-4h4zM186 114v8h8v-8h-8zm9-1v10h-10v-10h10z"/>
            <path d="M189 119h2v-2h-2v2zm3-3v4h-4v-4h4zM194 135h-8v-6h6v4h-4v-2h3.5v-1H187v4h6v-6h-8v8h10v-10h-10.5v1h9.5zM24 108h3v-1h-3v1zm6 0h3v-1h-3v1zm6 0h3v-1h-3v1zm6 0h3v-1h-3v1zm6 0h3v-1h-3v1zm6 0h3v-1h-3v1zm6 0h3v-1h-3v1zm6 0h3v-1h-3v1zm6 0h3v-1h-3v1zm6 0h3v-1h-3v1zm6 0h3v-1h-3v1zM24 128h3v-1h-3v1zm6 0h3v-1h-3v1zm6 0h3v-1h-3v1zm6 0h3v-1h-3v1zm6 0h3v-1h-3v1zm6 0h3v-1h-3v1zm6 0h3v-1h-3v1zm6 0h3v-1h-3v1zm6 0h3v-1h-3v1zm6 0h3v-1h-3v1zm6 0h3v-1h-3v1zM220 131h-11v1h11v-1zm-63 0h-49v1h49v-1zM240 1v52h1V0H37v83.5h1V1h202z"/>
        </g>
        <g fill="#34A9FF" fill-rule="nonzero">
            <path d="M138 81.5c-8.56 0-15.5-6.94-15.5-15.5 0-8.56 6.94-15.5 15.5-15.5 8.56 0 15.5 6.94 15.5 15.5 0 8.56-6.94 15.5-15.5 15.5zm0-1c8.008 0 14.5-6.492 14.5-14.5s-6.492-14.5-14.5-14.5-14.5 6.492-14.5 14.5 6.492 14.5 14.5 14.5z"/>
            <path d="M138 71.5a5.5 5.5 0 1 1 0-11 5.5 5.5 0 0 1 0 11zm0-1a4.5 4.5 0 1 0 0-9 4.5 4.5 0 0 0 0 9zM240.863 136.844l-.363.382-.363-.382c-13.781-14.523-21.374-24.193-22.81-29.077-3.099-7.503-3.099-17.634-.024-30.396l.092-.383h.394c1.85 0 9.098-1.863 13.638-3.908 1.348-.66 4.286-2.66 8.776-5.982l.297-.22.297.22c4.49 3.321 7.428 5.322 8.762 5.975 4.554 2.052 11.802 3.915 13.652 3.915h.394l.092.383c3.071 12.748 3.075 22.871-.014 30.372-1.472 4.941-9.063 14.603-22.82 29.1zm21.868-29.41c2.994-7.256 3.023-17.062.08-29.465-2.45-.2-9.26-2-13.677-3.991-1.393-.682-4.259-2.627-8.634-5.856-4.375 3.229-7.241 5.174-8.648 5.863-4.404 1.985-11.214 3.783-13.664 3.984-2.942 12.403-2.913 22.21.08 29.466 1.378 4.675 8.805 14.158 22.232 28.338 13.427-14.18 20.854-23.663 22.231-28.338zM210 35a4 4 0 1 1 0-8 4 4 0 0 1 0 8zm0-1a3 3 0 1 0 0-6 3 3 0 0 0 0 6z"/>
        </g>
        <g transform="translate(65 2)">
            <path fill="#13B72A" fill-rule="nonzero" d="M1.5 73.5c0 39.765 32.235 72 72 72s72-32.235 72-72-32.235-72-72-72-72 32.235-72 72zm145 0c0 40.317-32.683 73-73 73s-73-32.683-73-73 32.683-73 73-73 73 32.683 73 73z" opacity=".2"/>
            <path fill="#13B72A" fill-rule="nonzero" d="M73.5 16.5c-31.48 0-57 25.52-57 57s25.52 57 57 57 57-25.52 57-57-25.52-57-57-57zm0-1c32.033 0 58 25.967 58 58s-25.967 58-58 58-58-25.967-58-58 25.967-58 58-58z" opacity=".5"/>
            <rect width="85" height="85" x="31" y="31" fill="#13B72A" rx="42.5"/>
            <g transform="translate(61 61)">
                <mask id="b" fill="#fff">
                    <use xlink:href="#a"/>
                </mask>
                <use fill="#000" fill-rule="nonzero" xlink:href="#a"/>
                <g fill="#FFF" mask="url(#b)">
                    <path d="M0 0h26v26H0z"/>
                </g>
            </g>
        </g>
    </g>
</svg>
