<svg id="Слой_1" xmlns="http://www.w3.org/2000/svg" viewBox="-408 260 143 42" style="enable-background:new -408 260 143 42"><style>.st0{fill:#FFFFFF;}</style><g id="_x30_4_x5F_Lykke_x5F_B2B"><g id="_x30_3_x5F_lykke_x5F_b2b_x2F_02a_x5F_what_x5F_we_x5F_do" transform="translate(-40 -25)"><g id="logo_updated-copy" transform="translate(40 25)"><g id="Group"><g id="Shape"><path class="st0" d="M-397.8 302l12-12.2 12 12.2v-7.3l-12-12.2-12 12.2zM-407.8 277.3h17l5 5.2h-16.9zM-363.7 277.3h-17v-12.1l-5.1-5.2v22.5h17z"/></g><g id="Shape_1_"><path class="st0" d="M-318.7 276.6c0-5.8-3.4-9.8-8.6-9.8-5 0-8.8 4-8.8 9.3 0 5.5 3.7 9.3 9.1 9.3 2.8 0 5.4-.9 7-2.5l.2-.2-2.2-3.4-.2.2c-1.1 1-3 1.6-4.2 1.6-2.3 0-4-1.3-4.5-3.4h12.3v-1.1h-.1zm-4.8-2.3h-7.5c.3-1.6 1.4-3.2 3.8-3.2 1.2-.1 3.4.6 3.7 3.2zM-393.1 280.1h-9.8v-19.8h-4.9V285h16.6zM-336.7 285l-6.9-9.5 6.8-8.1h-6.1l-5.5 6.8v-13.9h-5V285h5v-8.2l6.2 8.2zM-355.9 285l-6.9-9.5 6.8-8.1h-6.1l-5.5 6.8v-13.9h-5V285h5v-8.2l6.2 8.2zM-380.3 267.1l-4 10.6-4-10.6h-5.3l6.7 17.1-2.7 7h5.2l9.6-24.1z" transform="translate(53.707 10.111)"/></g></g></g></g></g></svg>